# MagicaVoxel @ Ephtracy

# group
o 

# material
mtllib automatic_rifle.mtl
usemtl palette

# normals
vn -1 0 0
vn 1 0 0
vn 0 0 1
vn 0 0 -1
vn 0 -1 0
vn 0 1 0

# texcoords
vt 0.306641 0.5
vt 0.939453 0.5
vt 0.970703 0.5
vt 0.974609 0.5
vt 0.978516 0.5
vt 0.982422 0.5
vt 0.986328 0.5
vt 0.990234 0.5

# verts
v -2 2.4 0.4
v -2 2.4 0
v -2 2.5 0
v -2 2.5 -0.3
v -2 2.6 -0.3
v -2 2.6 -0.4
v -2 2.6 -2
v -2 2.6 -2.4
v -2 2.6 -2.6
v -2 2.7 -2
v -2 2.7 -2.4
v -2 2.7 -2.6
v -2 2.7 -2.7
v -2 2.8 0.4
v -2 2.8 -0.4
v -2 2.8 -2.7
v -1.9 1.9 -1.7
v -1.9 1.9 -1.9
v -1.9 2.2 -0.9
v -1.9 2.2 -1.1
v -1.9 2.2 -1.3
v -1.9 2.3 0.4
v -1.9 2.3 0.1
v -1.9 2.3 -1.1
v -1.9 2.3 -1.3
v -1.9 2.3 -1.4
v -1.9 2.4 0.4
v -1.9 2.4 0.1
v -1.9 2.4 0
v -1.9 2.4 -0.1
v -1.9 2.5 0
v -1.9 2.5 -0.1
v -1.9 2.5 -0.3
v -1.9 2.5 -0.4
v -1.9 2.5 -1.2
v -1.9 2.5 -1.3
v -1.9 2.5 -1.4
v -1.9 2.6 -0.3
v -1.9 2.6 -0.4
v -1.9 2.6 -0.9
v -1.9 2.6 -1.1
v -1.9 2.6 -1.2
v -1.9 2.6 -1.3
v -1.9 2.6 -1.7
v -1.9 2.6 -1.9
v -1.9 2.6 -2
v -1.9 2.6 -2.4
v -1.9 2.6 -2.6
v -1.9 2.6 -2.7
v -1.9 2.7 -2
v -1.9 2.7 -2.4
v -1.9 2.7 -2.6
v -1.9 2.7 -2.7
v -1.9 2.7 -2.8
v -1.9 2.8 0.4
v -1.9 2.8 -0.3
v -1.9 2.8 -0.4
v -1.9 2.8 -2.7
v -1.9 2.8 -2.8
v -1.9 2.8 -2.9
v -1.9 2.9 0.4
v -1.9 2.9 -0.3
v -1.9 2.9 -0.4
v -1.9 2.9 -0.9
v -1.9 2.9 -1.1
v -1.9 2.9 -2.7
v -1.9 2.9 -2.8
v -1.9 2.9 -2.9
v -1.9 3 -0.9
v -1.9 3 -1.1
v -1.9 3 -2.7
v -1.9 3 -2.8
v -1.8 1.9 -1.7
v -1.8 1.9 -1.9
v -1.8 2.2 -0.9
v -1.8 2.2 -1.1
v -1.8 2.2 -1.3
v -1.8 2.3 0.4
v -1.8 2.3 0.1
v -1.8 2.3 -1.1
v -1.8 2.3 -1.3
v -1.8 2.3 -1.4
v -1.8 2.4 0.4
v -1.8 2.4 0.1
v -1.8 2.4 0
v -1.8 2.4 -0.1
v -1.8 2.5 0
v -1.8 2.5 -0.1
v -1.8 2.5 -0.3
v -1.8 2.5 -0.4
v -1.8 2.5 -1.2
v -1.8 2.5 -1.3
v -1.8 2.5 -1.4
v -1.8 2.6 -0.3
v -1.8 2.6 -0.4
v -1.8 2.6 -0.9
v -1.8 2.6 -1.1
v -1.8 2.6 -1.2
v -1.8 2.6 -1.3
v -1.8 2.6 -1.7
v -1.8 2.6 -1.9
v -1.8 2.6 -2.4
v -1.8 2.6 -2.6
v -1.8 2.6 -2.7
v -1.8 2.7 -1.9
v -1.8 2.7 -2.4
v -1.8 2.7 -2.6
v -1.8 2.7 -2.7
v -1.8 2.7 -2.8
v -1.8 2.8 0.4
v -1.8 2.8 -0.3
v -1.8 2.8 -0.4
v -1.8 2.8 -2.7
v -1.8 2.8 -2.8
v -1.8 2.8 -2.9
v -1.8 2.9 0.4
v -1.8 2.9 -0.3
v -1.8 2.9 -0.4
v -1.8 2.9 -0.9
v -1.8 2.9 -1.1
v -1.8 2.9 -2.7
v -1.8 2.9 -2.8
v -1.8 2.9 -2.9
v -1.8 3 -0.9
v -1.8 3 -1.1
v -1.8 3 -2.7
v -1.8 3 -2.8
v -1.7 2.4 0.4
v -1.7 2.4 0
v -1.7 2.5 0
v -1.7 2.5 -0.3
v -1.7 2.6 -0.3
v -1.7 2.6 -0.4
v -1.7 2.6 -1.9
v -1.7 2.6 -2.4
v -1.7 2.6 -2.6
v -1.7 2.7 -1.9
v -1.7 2.7 -2.4
v -1.7 2.7 -2.6
v -1.7 2.7 -2.7
v -1.7 2.8 0.4
v -1.7 2.8 -0.4
v -1.7 2.8 -2.7
v -2 2.4 0.4
v -2 2.8 0.4
v -1.9 2.3 0.4
v -1.9 2.4 0.4
v -1.9 2.8 0.4
v -1.9 2.9 0.4
v -1.8 2.3 0.4
v -1.8 2.4 0.4
v -1.8 2.8 0.4
v -1.8 2.9 0.4
v -1.7 2.4 0.4
v -1.7 2.8 0.4
v -1.9 2.8 -0.4
v -1.9 2.9 -0.4
v -1.8 2.8 -0.4
v -1.8 2.9 -0.4
v -1.9 2.2 -0.9
v -1.9 2.6 -0.9
v -1.9 2.9 -0.9
v -1.9 3 -0.9
v -1.8 2.2 -0.9
v -1.8 2.6 -0.9
v -1.8 2.9 -0.9
v -1.8 3 -0.9
v -1.9 2.5 -1.2
v -1.9 2.6 -1.2
v -1.8 2.5 -1.2
v -1.8 2.6 -1.2
v -1.9 2.3 -1.3
v -1.9 2.5 -1.3
v -1.8 2.3 -1.3
v -1.8 2.5 -1.3
v -1.9 1.9 -1.7
v -1.9 2.6 -1.7
v -1.8 1.9 -1.7
v -1.8 2.6 -1.7
v -2 2.6 -2.4
v -2 2.7 -2.4
v -1.9 2.6 -2.4
v -1.9 2.7 -2.4
v -1.8 2.6 -2.4
v -1.8 2.7 -2.4
v -1.7 2.6 -2.4
v -1.7 2.7 -2.4
v -1.9 2.9 -2.7
v -1.9 3 -2.7
v -1.8 2.9 -2.7
v -1.8 3 -2.7
v -1.9 2.3 0.1
v -1.9 2.4 0.1
v -1.8 2.3 0.1
v -1.8 2.4 0.1
v -2 2.4 0
v -2 2.5 0
v -1.9 2.4 0
v -1.9 2.5 0
v -1.8 2.4 0
v -1.8 2.5 0
v -1.7 2.4 0
v -1.7 2.5 0
v -1.9 2.4 -0.1
v -1.9 2.5 -0.1
v -1.8 2.4 -0.1
v -1.8 2.5 -0.1
v -2 2.5 -0.3
v -2 2.6 -0.3
v -1.9 2.5 -0.3
v -1.9 2.6 -0.3
v -1.9 2.8 -0.3
v -1.9 2.9 -0.3
v -1.8 2.5 -0.3
v -1.8 2.6 -0.3
v -1.8 2.8 -0.3
v -1.8 2.9 -0.3
v -1.7 2.5 -0.3
v -1.7 2.6 -0.3
v -1.9 2.5 -0.4
v -1.9 2.6 -0.4
v -1.8 2.5 -0.4
v -1.8 2.6 -0.4
v -1.9 2.3 -1.1
v -1.9 2.6 -1.1
v -1.9 2.9 -1.1
v -1.9 3 -1.1
v -1.8 2.3 -1.1
v -1.8 2.6 -1.1
v -1.8 2.9 -1.1
v -1.8 3 -1.1
v -1.9 2.2 -1.3
v -1.9 2.3 -1.3
v -1.9 2.5 -1.3
v -1.9 2.6 -1.3
v -1.8 2.2 -1.3
v -1.8 2.3 -1.3
v -1.8 2.5 -1.3
v -1.8 2.6 -1.3
v -1.9 2.3 -1.4
v -1.9 2.5 -1.4
v -1.8 2.3 -1.4
v -1.8 2.5 -1.4
v -1.9 1.9 -1.9
v -1.9 2.6 -1.9
v -1.8 1.9 -1.9
v -1.8 2.6 -1.9
v -1.8 2.7 -1.9
v -1.7 2.6 -1.9
v -1.7 2.7 -1.9
v -2 2.6 -2
v -2 2.7 -2
v -1.9 2.6 -2
v -1.9 2.7 -2
v -2 2.6 -2.6
v -2 2.7 -2.6
v -1.9 2.6 -2.6
v -1.9 2.7 -2.6
v -1.8 2.6 -2.6
v -1.8 2.7 -2.6
v -1.7 2.6 -2.6
v -1.7 2.7 -2.6
v -2 2.7 -2.7
v -2 2.8 -2.7
v -1.9 2.6 -2.7
v -1.9 2.7 -2.7
v -1.9 2.8 -2.7
v -1.8 2.6 -2.7
v -1.8 2.7 -2.7
v -1.8 2.8 -2.7
v -1.7 2.7 -2.7
v -1.7 2.8 -2.7
v -1.9 2.7 -2.8
v -1.9 2.8 -2.8
v -1.9 2.9 -2.8
v -1.9 3 -2.8
v -1.8 2.7 -2.8
v -1.8 2.8 -2.8
v -1.8 2.9 -2.8
v -1.8 3 -2.8
v -1.9 2.8 -2.9
v -1.9 2.9 -2.9
v -1.8 2.8 -2.9
v -1.8 2.9 -2.9
v -1.9 1.9 -1.7
v -1.8 1.9 -1.7
v -1.9 1.9 -1.9
v -1.8 1.9 -1.9
v -1.9 2.2 -0.9
v -1.8 2.2 -0.9
v -1.9 2.2 -1.1
v -1.8 2.2 -1.1
v -1.9 2.2 -1.3
v -1.8 2.2 -1.3
v -1.9 2.3 0.4
v -1.8 2.3 0.4
v -1.9 2.3 0.1
v -1.8 2.3 0.1
v -1.9 2.3 -1.3
v -1.8 2.3 -1.3
v -1.9 2.3 -1.4
v -1.8 2.3 -1.4
v -2 2.4 0.4
v -1.9 2.4 0.4
v -1.8 2.4 0.4
v -1.7 2.4 0.4
v -1.9 2.4 0.1
v -1.8 2.4 0.1
v -2 2.4 0
v -1.9 2.4 0
v -1.8 2.4 0
v -1.7 2.4 0
v -1.9 2.4 -0.1
v -1.8 2.4 -0.1
v -2 2.5 0
v -1.9 2.5 0
v -1.8 2.5 0
v -1.7 2.5 0
v -1.9 2.5 -0.1
v -1.8 2.5 -0.1
v -2 2.5 -0.3
v -1.9 2.5 -0.3
v -1.8 2.5 -0.3
v -1.7 2.5 -0.3
v -1.9 2.5 -0.4
v -1.8 2.5 -0.4
v -1.9 2.5 -1.2
v -1.8 2.5 -1.2
v -1.9 2.5 -1.3
v -1.8 2.5 -1.3
v -2 2.6 -0.3
v -1.9 2.6 -0.3
v -1.8 2.6 -0.3
v -1.7 2.6 -0.3
v -2 2.6 -0.4
v -1.9 2.6 -0.4
v -1.8 2.6 -0.4
v -1.7 2.6 -0.4
v -1.9 2.6 -0.9
v -1.8 2.6 -0.9
v -1.9 2.6 -1.1
v -1.8 2.6 -1.1
v -1.9 2.6 -1.2
v -1.8 2.6 -1.2
v -1.9 2.6 -1.3
v -1.8 2.6 -1.3
v -1.9 2.6 -1.7
v -1.8 2.6 -1.7
v -1.9 2.6 -1.9
v -1.8 2.6 -1.9
v -1.7 2.6 -1.9
v -2 2.6 -2
v -1.9 2.6 -2
v -2 2.6 -2.4
v -1.9 2.6 -2.4
v -1.8 2.6 -2.4
v -1.7 2.6 -2.4
v -2 2.6 -2.6
v -1.9 2.6 -2.6
v -1.8 2.6 -2.6
v -1.7 2.6 -2.6
v -1.9 2.6 -2.7
v -1.8 2.6 -2.7
v -1.8 2.7 -1.9
v -1.7 2.7 -1.9
v -2 2.7 -2
v -1.9 2.7 -2
v -2 2.7 -2.4
v -1.9 2.7 -2.4
v -1.8 2.7 -2.4
v -1.7 2.7 -2.4
v -2 2.7 -2.6
v -1.9 2.7 -2.6
v -1.8 2.7 -2.6
v -1.7 2.7 -2.6
v -2 2.7 -2.7
v -1.9 2.7 -2.7
v -1.8 2.7 -2.7
v -1.7 2.7 -2.7
v -1.9 2.7 -2.8
v -1.8 2.7 -2.8
v -1.9 2.8 -2.8
v -1.8 2.8 -2.8
v -1.9 2.8 -2.9
v -1.8 2.8 -2.9
v -1.9 2.3 -1.1
v -1.8 2.3 -1.1
v -1.9 2.3 -1.3
v -1.8 2.3 -1.3
v -1.9 2.5 -1.3
v -1.8 2.5 -1.3
v -1.9 2.5 -1.4
v -1.8 2.5 -1.4
v -2 2.8 0.4
v -1.9 2.8 0.4
v -1.8 2.8 0.4
v -1.7 2.8 0.4
v -1.9 2.8 -0.3
v -1.8 2.8 -0.3
v -2 2.8 -0.4
v -1.9 2.8 -0.4
v -1.8 2.8 -0.4
v -1.7 2.8 -0.4
v -2 2.8 -2.7
v -1.9 2.8 -2.7
v -1.8 2.8 -2.7
v -1.7 2.8 -2.7
v -1.9 2.9 0.4
v -1.8 2.9 0.4
v -1.9 2.9 -0.3
v -1.8 2.9 -0.3
v -1.9 2.9 -0.4
v -1.8 2.9 -0.4
v -1.9 2.9 -0.9
v -1.8 2.9 -0.9
v -1.9 2.9 -1.1
v -1.8 2.9 -1.1
v -1.9 2.9 -2.7
v -1.8 2.9 -2.7
v -1.9 2.9 -2.8
v -1.8 2.9 -2.8
v -1.9 2.9 -2.9
v -1.8 2.9 -2.9
v -1.9 3 -0.9
v -1.8 3 -0.9
v -1.9 3 -1.1
v -1.8 3 -1.1
v -1.9 3 -2.7
v -1.8 3 -2.7
v -1.9 3 -2.8
v -1.8 3 -2.8

# faces
f 3/3/1 2/3/1 1/3/1
f 5/3/1 4/3/1 3/3/1
f 10/8/1 7/8/1 6/8/1
f 11/8/1 9/8/1 8/8/1
f 12/8/1 9/8/1 11/8/1
f 14/3/1 3/3/1 1/3/1
f 14/3/1 5/3/1 3/3/1
f 14/3/1 6/3/1 5/3/1
f 15/8/1 13/8/1 12/8/1
f 15/3/1 6/3/1 14/3/1
f 15/8/1 12/8/1 11/8/1
f 15/8/1 11/8/1 10/8/1
f 15/8/1 10/8/1 6/8/1
f 16/8/1 13/8/1 15/8/1
f 24/4/1 20/4/1 19/4/1
f 24/5/1 21/5/1 20/5/1
f 25/5/1 21/5/1 24/5/1
f 27/3/1 23/3/1 22/3/1
f 28/3/1 23/3/1 27/3/1
f 31/3/1 30/3/1 29/3/1
f 32/3/1 30/3/1 31/3/1
f 36/5/1 26/5/1 25/5/1
f 37/5/1 26/5/1 36/5/1
f 38/3/1 34/3/1 33/3/1
f 39/3/1 34/3/1 38/3/1
f 40/4/1 24/4/1 19/4/1
f 41/4/1 24/4/1 40/4/1
f 42/5/1 36/5/1 35/5/1
f 43/5/1 36/5/1 42/5/1
f 44/2/1 18/2/1 17/2/1
f 45/2/1 18/2/1 44/2/1
f 50/8/1 47/8/1 46/8/1
f 51/8/1 47/8/1 50/8/1
f 52/8/1 49/8/1 48/8/1
f 53/8/1 49/8/1 52/8/1
f 58/8/1 54/8/1 53/8/1
f 59/8/1 54/8/1 58/8/1
f 61/3/1 56/3/1 55/3/1
f 62/3/1 56/3/1 61/3/1
f 63/6/1 60/6/1 59/6/1
f 63/6/1 58/6/1 57/6/1
f 63/6/1 59/6/1 58/6/1
f 64/6/1 60/6/1 63/6/1
f 65/6/1 60/6/1 64/6/1
f 66/6/1 60/6/1 65/6/1
f 67/6/1 60/6/1 66/6/1
f 68/6/1 60/6/1 67/6/1
f 69/7/1 65/7/1 64/7/1
f 70/7/1 65/7/1 69/7/1
f 71/7/1 67/7/1 66/7/1
f 72/7/1 67/7/1 71/7/1
f 75/4/2 76/4/2 80/4/2
f 76/5/2 77/5/2 80/5/2
f 80/5/2 77/5/2 81/5/2
f 78/3/2 79/3/2 83/3/2
f 83/3/2 79/3/2 84/3/2
f 85/3/2 86/3/2 87/3/2
f 87/3/2 86/3/2 88/3/2
f 81/5/2 82/5/2 92/5/2
f 92/5/2 82/5/2 93/5/2
f 89/3/2 90/3/2 94/3/2
f 94/3/2 90/3/2 95/3/2
f 75/4/2 80/4/2 96/4/2
f 96/4/2 80/4/2 97/4/2
f 91/5/2 92/5/2 98/5/2
f 98/5/2 92/5/2 99/5/2
f 73/2/2 74/2/2 100/2/2
f 100/2/2 74/2/2 101/2/2
f 101/8/2 102/8/2 105/8/2
f 105/8/2 102/8/2 106/8/2
f 103/8/2 104/8/2 107/8/2
f 107/8/2 104/8/2 108/8/2
f 108/8/2 109/8/2 113/8/2
f 113/8/2 109/8/2 114/8/2
f 110/3/2 111/3/2 116/3/2
f 116/3/2 111/3/2 117/3/2
f 114/6/2 115/6/2 118/6/2
f 112/6/2 113/6/2 118/6/2
f 113/6/2 114/6/2 118/6/2
f 118/6/2 115/6/2 119/6/2
f 119/6/2 115/6/2 120/6/2
f 120/6/2 115/6/2 121/6/2
f 121/6/2 115/6/2 122/6/2
f 122/6/2 115/6/2 123/6/2
f 119/7/2 120/7/2 124/7/2
f 124/7/2 120/7/2 125/7/2
f 121/7/2 122/7/2 126/7/2
f 126/7/2 122/7/2 127/7/2
f 128/3/2 129/3/2 130/3/2
f 130/3/2 131/3/2 132/3/2
f 133/8/2 134/8/2 137/8/2
f 135/8/2 136/8/2 138/8/2
f 138/8/2 136/8/2 139/8/2
f 128/3/2 130/3/2 141/3/2
f 130/3/2 132/3/2 141/3/2
f 132/3/2 133/3/2 141/3/2
f 139/8/2 140/8/2 142/8/2
f 141/3/2 133/3/2 142/3/2
f 138/8/2 139/8/2 142/8/2
f 137/8/2 138/8/2 142/8/2
f 133/8/2 137/8/2 142/8/2
f 142/8/2 140/8/2 143/8/2
f 147/3/3 145/3/3 144/3/3
f 148/3/3 145/3/3 147/3/3
f 150/3/3 147/3/3 146/3/3
f 150/3/3 149/3/3 148/3/3
f 150/3/3 148/3/3 147/3/3
f 151/3/3 149/3/3 150/3/3
f 152/3/3 149/3/3 151/3/3
f 153/3/3 149/3/3 152/3/3
f 154/3/3 152/3/3 151/3/3
f 155/3/3 152/3/3 154/3/3
f 158/6/3 157/6/3 156/6/3
f 159/6/3 157/6/3 158/6/3
f 164/4/3 161/4/3 160/4/3
f 165/4/3 161/4/3 164/4/3
f 166/7/3 163/7/3 162/7/3
f 167/7/3 163/7/3 166/7/3
f 170/5/3 169/5/3 168/5/3
f 171/5/3 169/5/3 170/5/3
f 174/5/3 173/5/3 172/5/3
f 175/5/3 173/5/3 174/5/3
f 178/2/3 177/2/3 176/2/3
f 179/2/3 177/2/3 178/2/3
f 182/8/3 181/8/3 180/8/3
f 183/8/3 181/8/3 182/8/3
f 186/8/3 185/8/3 184/8/3
f 187/8/3 185/8/3 186/8/3
f 190/7/3 189/7/3 188/7/3
f 191/7/3 189/7/3 190/7/3
f 192/3/4 193/3/4 194/3/4
f 194/3/4 193/3/4 195/3/4
f 196/3/4 197/3/4 198/3/4
f 198/3/4 197/3/4 199/3/4
f 200/3/4 201/3/4 202/3/4
f 202/3/4 201/3/4 203/3/4
f 204/3/4 205/3/4 206/3/4
f 206/3/4 205/3/4 207/3/4
f 208/3/4 209/3/4 210/3/4
f 210/3/4 209/3/4 211/3/4
f 212/3/4 213/3/4 216/3/4
f 216/3/4 213/3/4 217/3/4
f 214/3/4 215/3/4 218/3/4
f 218/3/4 215/3/4 219/3/4
f 220/3/4 221/3/4 222/3/4
f 222/3/4 221/3/4 223/3/4
f 224/4/4 225/4/4 228/4/4
f 228/4/4 225/4/4 229/4/4
f 226/7/4 227/7/4 230/7/4
f 230/7/4 227/7/4 231/7/4
f 232/5/4 233/5/4 236/5/4
f 236/5/4 233/5/4 237/5/4
f 234/5/4 235/5/4 238/5/4
f 238/5/4 235/5/4 239/5/4
f 240/5/4 241/5/4 242/5/4
f 242/5/4 241/5/4 243/5/4
f 244/2/4 245/2/4 246/2/4
f 246/2/4 245/2/4 247/2/4
f 247/8/4 248/8/4 249/8/4
f 249/8/4 248/8/4 250/8/4
f 251/8/4 252/8/4 253/8/4
f 253/8/4 252/8/4 254/8/4
f 255/8/4 256/8/4 257/8/4
f 257/8/4 256/8/4 258/8/4
f 259/8/4 260/8/4 261/8/4
f 261/8/4 260/8/4 262/8/4
f 263/8/4 264/8/4 266/8/4
f 266/8/4 264/8/4 267/8/4
f 265/8/4 266/8/4 268/8/4
f 268/8/4 266/8/4 269/8/4
f 269/8/4 270/8/4 271/8/4
f 271/8/4 270/8/4 272/8/4
f 273/8/4 274/8/4 277/8/4
f 277/8/4 274/8/4 278/8/4
f 275/7/4 276/7/4 279/7/4
f 279/7/4 276/7/4 280/7/4
f 281/6/4 282/6/4 283/6/4
f 283/6/4 282/6/4 284/6/4
f 287/2/5 286/2/5 285/2/5
f 288/2/5 286/2/5 287/2/5
f 291/4/5 290/4/5 289/4/5
f 292/4/5 290/4/5 291/4/5
f 293/5/5 292/5/5 291/5/5
f 294/5/5 292/5/5 293/5/5
f 297/3/5 296/3/5 295/3/5
f 298/3/5 296/3/5 297/3/5
f 301/5/5 300/5/5 299/5/5
f 302/5/5 300/5/5 301/5/5
f 307/3/5 304/3/5 303/3/5
f 308/3/5 306/3/5 305/3/5
f 309/3/5 307/3/5 303/3/5
f 309/3/5 308/3/5 307/3/5
f 310/3/5 308/3/5 309/3/5
f 311/3/5 306/3/5 308/3/5
f 311/3/5 308/3/5 310/3/5
f 312/3/5 306/3/5 311/3/5
f 313/3/5 311/3/5 310/3/5
f 314/3/5 311/3/5 313/3/5
f 319/3/5 316/3/5 315/3/5
f 320/3/5 318/3/5 317/3/5
f 321/3/5 319/3/5 315/3/5
f 321/3/5 320/3/5 319/3/5
f 322/3/5 320/3/5 321/3/5
f 323/3/5 318/3/5 320/3/5
f 323/3/5 320/3/5 322/3/5
f 324/3/5 318/3/5 323/3/5
f 325/3/5 323/3/5 322/3/5
f 326/3/5 323/3/5 325/3/5
f 329/5/5 328/5/5 327/5/5
f 330/5/5 328/5/5 329/5/5
f 335/3/5 332/3/5 331/3/5
f 336/3/5 332/3/5 335/3/5
f 337/3/5 334/3/5 333/3/5
f 338/3/5 334/3/5 337/3/5
f 339/8/5 336/8/5 335/8/5
f 339/8/5 337/8/5 336/8/5
f 339/8/5 338/8/5 337/8/5
f 340/8/5 338/8/5 339/8/5
f 341/8/5 339/8/5 335/8/5
f 342/8/5 338/8/5 340/8/5
f 343/8/5 341/8/5 335/8/5
f 343/8/5 342/8/5 341/8/5
f 344/8/5 338/8/5 342/8/5
f 344/8/5 342/8/5 343/8/5
f 345/8/5 343/8/5 335/8/5
f 346/8/5 338/8/5 344/8/5
f 347/8/5 345/8/5 335/8/5
f 347/8/5 346/8/5 345/8/5
f 348/8/5 338/8/5 346/8/5
f 348/8/5 346/8/5 347/8/5
f 349/8/5 347/8/5 335/8/5
f 350/8/5 338/8/5 348/8/5
f 351/8/5 338/8/5 350/8/5
f 352/8/5 349/8/5 335/8/5
f 352/8/5 350/8/5 349/8/5
f 353/8/5 350/8/5 352/8/5
f 355/8/5 350/8/5 353/8/5
f 356/8/5 350/8/5 355/8/5
f 358/8/5 355/8/5 354/8/5
f 358/8/5 357/8/5 356/8/5
f 358/8/5 356/8/5 355/8/5
f 359/8/5 357/8/5 358/8/5
f 360/8/5 357/8/5 359/8/5
f 361/8/5 357/8/5 360/8/5
f 362/8/5 360/8/5 359/8/5
f 363/8/5 360/8/5 362/8/5
f 368/8/5 367/8/5 366/8/5
f 369/8/5 367/8/5 368/8/5
f 370/8/5 365/8/5 364/8/5
f 371/8/5 365/8/5 370/8/5
f 376/8/5 373/8/5 372/8/5
f 377/8/5 373/8/5 376/8/5
f 378/8/5 375/8/5 374/8/5
f 379/8/5 375/8/5 378/8/5
f 380/8/5 378/8/5 377/8/5
f 381/8/5 378/8/5 380/8/5
f 384/6/5 383/6/5 382/6/5
f 385/6/5 383/6/5 384/6/5
f 386/5/6 387/5/6 388/5/6
f 388/5/6 387/5/6 389/5/6
f 390/5/6 391/5/6 392/5/6
f 392/5/6 391/5/6 393/5/6
f 394/3/6 395/3/6 398/3/6
f 396/3/6 397/3/6 399/3/6
f 394/3/6 398/3/6 400/3/6
f 398/3/6 399/3/6 400/3/6
f 400/3/6 399/3/6 401/3/6
f 399/3/6 397/3/6 402/3/6
f 401/3/6 399/3/6 402/3/6
f 402/3/6 397/3/6 403/3/6
f 400/8/6 401/8/6 404/8/6
f 404/8/6 401/8/6 405/8/6
f 402/8/6 403/8/6 406/8/6
f 406/8/6 403/8/6 407/8/6
f 408/3/6 409/3/6 410/3/6
f 410/3/6 409/3/6 411/3/6
f 412/6/6 413/6/6 414/6/6
f 414/6/6 413/6/6 415/6/6
f 416/6/6 417/6/6 418/6/6
f 418/6/6 417/6/6 419/6/6
f 420/6/6 421/6/6 422/6/6
f 422/6/6 421/6/6 423/6/6
f 424/7/6 425/7/6 426/7/6
f 426/7/6 425/7/6 427/7/6
f 428/7/6 429/7/6 430/7/6
f 430/7/6 429/7/6 431/7/6
